<mxfile host="app.diagrams.net" modified="2022-11-30T13:24:37.025Z" agent="5.0 (Windows NT 10.0; Win64; x64) AppleWebKit/537.36 (KHTML, like Gecko) Chrome/107.0.0.0 Safari/537.36 Edg/107.0.1418.62" etag="-ZXa3kZ5oIYewwjxmflJ" version="20.6.0" type="github">
  <diagram id="3228e29e-7158-1315-38df-8450db1d8a1d" name="Page-1">
    <mxGraphModel dx="1188" dy="815" grid="1" gridSize="10" guides="1" tooltips="1" connect="1" arrows="1" fold="1" page="1" pageScale="1" pageWidth="1169" pageHeight="827" background="none" math="0" shadow="0">
      <root>
        <mxCell id="0" />
        <mxCell id="1" parent="0" />
        <mxCell id="21531" value="" style="ellipse;fillColor=#F08705;opacity=60;strokeColor=none;html=1;fontColor=#FFFFFF;" parent="1" vertex="1">
          <mxGeometry x="339.5" y="308.5" width="500" height="500" as="geometry" />
        </mxCell>
        <mxCell id="21532" value="" style="ellipse;fillColor=#12AAB5;opacity=60;strokeColor=none;html=1;fontColor=#FFFFFF;" parent="1" vertex="1">
          <mxGeometry x="179.5" y="18.5" width="500" height="500" as="geometry" />
        </mxCell>
        <mxCell id="21533" value="" style="ellipse;fillColor=#e85642;opacity=60;strokeColor=none;html=1;fontColor=#FFFFFF;" parent="1" vertex="1">
          <mxGeometry x="489.5" y="18.5" width="500" height="500" as="geometry" />
        </mxCell>
        <mxCell id="21534" value="Problem/Defect" style="text;fontSize=24;align=center;verticalAlign=middle;html=1;fontColor=#FFFFFF;" parent="1" vertex="1">
          <mxGeometry x="200" y="157.75" width="190" height="71.5" as="geometry" />
        </mxCell>
        <mxCell id="21535" value="Incident" style="text;fontSize=24;align=center;verticalAlign=middle;html=1;fontColor=#FFFFFF;" parent="1" vertex="1">
          <mxGeometry x="699.5" y="140" width="190" height="70" as="geometry" />
        </mxCell>
        <mxCell id="21536" value="Demand" style="text;fontSize=24;align=center;verticalAlign=middle;html=1;fontColor=#FFFFFF;" parent="1" vertex="1">
          <mxGeometry x="499.5" y="558.5" width="190" height="70" as="geometry" />
        </mxCell>
        <mxCell id="21537" value="User Impact" style="text;align=center;html=1;fontColor=#FFFFFF;fontSize=16;" parent="1" vertex="1">
          <mxGeometry x="569.5" y="198.5" width="40" height="40" as="geometry" />
        </mxCell>
        <mxCell id="21540" value="Enhancement&lt;br&gt;Code fix/Hotfix&lt;br&gt;Demand/CR" style="text;align=center;html=1;fontColor=#FFFFFF;fontSize=16;" parent="1" vertex="1">
          <mxGeometry x="570" y="330" width="40" height="40" as="geometry" />
        </mxCell>
        <mxCell id="o9DP1AmymUW7ImaerBZZ-21544" value="" style="line;strokeWidth=2;html=1;rounded=0;shadow=0;fontSize=27;align=center;fillColor=none;strokeColor=#FFFFFF;" parent="1" vertex="1">
          <mxGeometry x="744.25" y="188.5" width="100.5" height="10" as="geometry" />
        </mxCell>
        <mxCell id="o9DP1AmymUW7ImaerBZZ-21545" value="" style="line;strokeWidth=2;html=1;rounded=0;shadow=0;fontSize=27;align=center;fillColor=none;strokeColor=#FFFFFF;" parent="1" vertex="1">
          <mxGeometry x="210.5" y="200" width="179.5" height="10" as="geometry" />
        </mxCell>
        <mxCell id="o9DP1AmymUW7ImaerBZZ-21546" value="" style="line;strokeWidth=2;html=1;rounded=0;shadow=0;fontSize=27;align=center;fillColor=none;strokeColor=#FFFFFF;" parent="1" vertex="1">
          <mxGeometry x="544.5" y="600" width="100" height="10" as="geometry" />
        </mxCell>
        <mxCell id="o9DP1AmymUW7ImaerBZZ-21547" value="&lt;ul&gt;&lt;li style=&quot;text-align: left;&quot;&gt;One time un-usual beahviour&lt;/li&gt;&lt;li style=&quot;text-align: left;&quot;&gt;Unique anomalies spotted&lt;/li&gt;&lt;li&gt;Could be solved without code-fix&lt;/li&gt;&lt;li style=&quot;text-align: left;&quot;&gt;User Issues&amp;nbsp;&lt;/li&gt;&lt;/ul&gt;" style="text;align=center;html=1;fontColor=#FFFFFF;fontSize=16;" parent="1" vertex="1">
          <mxGeometry x="799.5" y="180" width="40" height="40" as="geometry" />
        </mxCell>
        <mxCell id="o9DP1AmymUW7ImaerBZZ-21550" value="&lt;ul style=&quot;color: rgb(255, 255, 255); font-family: Helvetica; font-size: 16px; font-style: normal; font-variant-ligatures: normal; font-variant-caps: normal; font-weight: 400; letter-spacing: normal; orphans: 2; text-indent: 0px; text-transform: none; widows: 2; word-spacing: 0px; -webkit-text-stroke-width: 0px; text-decoration-thickness: initial; text-decoration-style: initial; text-decoration-color: initial;&quot;&gt;&lt;li style=&quot;&quot;&gt;Items in GCP Error Reporting&lt;/li&gt;&lt;li style=&quot;&quot;&gt;Recurring Incidents&lt;/li&gt;&lt;li style=&quot;&quot;&gt;Code fix is required&lt;/li&gt;&lt;li style=&quot;&quot;&gt;UAT is required&lt;/li&gt;&lt;/ul&gt;" style="text;whiteSpace=wrap;html=1;" parent="1" vertex="1">
          <mxGeometry x="179.5" y="210" width="300" height="90" as="geometry" />
        </mxCell>
        <mxCell id="o9DP1AmymUW7ImaerBZZ-21551" value="&lt;ul style=&quot;color: rgb(255, 255, 255); font-family: Helvetica; font-size: 16px; font-style: normal; font-variant-ligatures: normal; font-variant-caps: normal; font-weight: 400; letter-spacing: normal; orphans: 2; text-align: center; text-indent: 0px; text-transform: none; widows: 2; word-spacing: 0px; -webkit-text-stroke-width: 0px; text-decoration-thickness: initial; text-decoration-style: initial; text-decoration-color: initial;&quot;&gt;&lt;li style=&quot;text-align: left;&quot;&gt;&lt;span style=&quot;text-align: center; background-color: initial;&quot;&gt;New features requiring code-change, but cannot be scoped in an enhancement&lt;/span&gt;&lt;br&gt;&lt;/li&gt;&lt;li style=&quot;text-align: left;&quot;&gt;DPO/Business Users reach can use demand form to create new feature request.&lt;/li&gt;&lt;/ul&gt;" style="text;whiteSpace=wrap;html=1;labelBackgroundColor=none;" parent="1" vertex="1">
          <mxGeometry x="444.5" y="590" width="300" height="130" as="geometry" />
        </mxCell>
        <mxCell id="o9DP1AmymUW7ImaerBZZ-21552" value="&lt;div style=&quot;text-align: center;&quot;&gt;&lt;span style=&quot;background-color: initial; font-size: 16px;&quot;&gt;&lt;font color=&quot;#ffffff&quot;&gt;Big Code Change&lt;/font&gt;&lt;/span&gt;&lt;/div&gt;" style="text;whiteSpace=wrap;html=1;" parent="1" vertex="1">
          <mxGeometry x="410" y="430" width="130" height="40" as="geometry" />
        </mxCell>
        <mxCell id="o9DP1AmymUW7ImaerBZZ-21553" value="&lt;div style=&quot;text-align: center;&quot;&gt;&lt;span style=&quot;background-color: initial; font-size: 16px;&quot;&gt;&lt;font color=&quot;#ffffff&quot;&gt;Enhancements from technical user&lt;/font&gt;&lt;/span&gt;&lt;/div&gt;" style="text;whiteSpace=wrap;html=1;" parent="1" vertex="1">
          <mxGeometry x="669.5" y="430" width="130" height="40" as="geometry" />
        </mxCell>
      </root>
    </mxGraphModel>
  </diagram>
</mxfile>
